<?xml version="1.0" encoding="utf-8"?>
<!-- Generator: Adobe Illustrator 26.2.1, SVG Export Plug-In . SVG Version: 6.00 Build 0)  -->
<svg version="1.1" id="Layer_1" xmlns="http://www.w3.org/2000/svg" xmlns:xlink="http://www.w3.org/1999/xlink" x="0px" y="0px"
	 viewBox="0 0 190 40" style="enable-background:new 0 0 190 40;" xml:space="preserve">
<style type="text/css">
	.st0{fill:#FFFFFF;}
	.st1{fill:#CE0081;}
</style>
<g>
	<path class="st0" d="M66.3,29.7h1.6l0.7,2.7v-2.7h1.2v5.1h-1.5l-0.9-3v3h-1.2V29.7z"/>
	<path class="st0" d="M70.7,33.9v-3.1h1.2v2.8c0,0.2,0.1,0.2,0.2,0.2c0.1,0,0.2-0.1,0.2-0.3v-2.8h1.2v3.9h-1.2v-0.6
		c-0.1,0.4-0.5,0.6-0.9,0.6C71,34.8,70.7,34.5,70.7,33.9z"/>
	<path class="st0" d="M74.3,33.4v-1.2c0-1,0.6-1.5,1.5-1.5c0.9,0,1.5,0.5,1.5,1.4v0.9h-1.7v0.5c0,0.2,0.1,0.3,0.3,0.3
		c0.2,0,0.2-0.1,0.2-0.3v-0.3h1.2v0.2c0,0.8-0.6,1.3-1.5,1.3C74.9,34.8,74.3,34.3,74.3,33.4z M76,32.3V32c0-0.2-0.1-0.3-0.2-0.3
		c-0.2,0-0.3,0.1-0.3,0.3v0.4H76z"/>
	<path class="st0" d="M77.8,30.8H79l0.3,2.8l0.3-2.8h1.2l-0.6,3.9h-1.8L77.8,30.8z"/>
	<path class="st0" d="M81.3,33.6L81.3,33.6c0-0.9,0.3-1.2,1.1-1.3l0.6-0.1v-0.3c0-0.1-0.1-0.2-0.2-0.2c-0.1,0-0.2,0.1-0.2,0.3V32
		h-1.2v0c0-0.9,0.6-1.3,1.5-1.3c0.8,0,1.4,0.4,1.4,1.2v2c0,0.3,0,0.6,0.1,0.8h-1.2c0-0.1,0-0.3-0.1-0.4c-0.2,0.3-0.5,0.5-0.9,0.5
		C81.6,34.8,81.3,34.4,81.3,33.6z M82.8,33.9c0.1,0,0.2-0.1,0.2-0.2v-1l-0.1,0c-0.3,0.1-0.3,0.2-0.3,0.6v0.1
		C82.5,33.8,82.6,33.9,82.8,33.9z"/>
	<path class="st0" d="M86.4,29.7h2.7v1h-1.4v1h1.1v1h-1.1v1.2h1.4v1h-2.7V29.7z"/>
	<path class="st0" d="M89.8,29.7H91v5.1h-1.2V29.7z"/>
	<path class="st0" d="M91.8,33.4v-1.2c0-1,0.6-1.5,1.5-1.5c0.9,0,1.5,0.5,1.5,1.4v0.9H93v0.5c0,0.2,0.1,0.3,0.3,0.3
		c0.2,0,0.2-0.1,0.2-0.3v-0.3h1.2v0.2c0,0.8-0.6,1.3-1.5,1.3C92.4,34.8,91.8,34.3,91.8,33.4z M93.5,32.3V32c0-0.2-0.1-0.3-0.2-0.3
		c-0.2,0-0.3,0.1-0.3,0.3v0.4H93.5z"/>
	<path class="st0" d="M95.4,33.4v-1.2c0-0.9,0.6-1.4,1.5-1.4c0.9,0,1.5,0.4,1.5,1.4v0.3h-1.2V32c0-0.2-0.1-0.3-0.2-0.3
		c-0.2,0-0.2,0.1-0.2,0.3v1.6c0,0.2,0.1,0.3,0.2,0.3c0.2,0,0.2-0.1,0.2-0.3v-0.4h1.2v0.3c0,0.9-0.6,1.4-1.5,1.4
		C96,34.8,95.4,34.3,95.4,33.4z"/>
	<path class="st0" d="M99,33.4v-1.2c0-0.9,0.6-1.4,1.5-1.4c0.9,0,1.5,0.4,1.5,1.4v0.3h-1.2V32c0-0.2-0.1-0.3-0.2-0.3
		c-0.2,0-0.2,0.1-0.2,0.3v1.6c0,0.2,0.1,0.3,0.2,0.3c0.2,0,0.2-0.1,0.2-0.3v-0.4h1.2v0.3c0,0.9-0.6,1.4-1.5,1.4
		C99.6,34.8,99,34.3,99,33.4z"/>
	<path class="st0" d="M103.3,29.5c0.4,0,0.7,0.2,0.7,0.6c0,0.3-0.3,0.6-0.7,0.6c-0.4,0-0.7-0.2-0.7-0.6
		C102.7,29.8,103,29.5,103.3,29.5z M102.7,30.8h1.2v3.9h-1.2V30.8z"/>
	<path class="st0" d="M104.7,33.4v-1.3c0-0.9,0.6-1.4,1.5-1.4c0.9,0,1.5,0.5,1.5,1.4v1.3c0,0.9-0.6,1.4-1.5,1.4
		C105.3,34.8,104.7,34.3,104.7,33.4z M105.8,29.7h1.2l-0.3,0.9h-1.1L105.8,29.7z M106.2,33.9c0.2,0,0.2-0.1,0.2-0.3V32
		c0-0.2-0.1-0.3-0.2-0.3c-0.2,0-0.2,0.1-0.2,0.3v1.6C105.9,33.8,106,33.9,106.2,33.9z"/>
	<path class="st0" d="M108.4,30.8h1.2v0.5c0.2-0.4,0.5-0.6,0.9-0.6c0.5,0,0.8,0.3,0.8,1v3h-1.2v-2.8c0-0.2-0.1-0.2-0.2-0.2
		c-0.1,0-0.2,0.1-0.2,0.3v2.8h-1.2V30.8z"/>
	<path class="st0" d="M114.1,30.7h-0.9v-1.1h3v1.1h-0.9v4h-1.3V30.7z"/>
	<path class="st0" d="M116.8,30.8h1.2v0.7c0.2-0.5,0.5-0.7,0.8-0.7c0,0,0.1,0,0.1,0v1.4c-0.1,0-0.2-0.1-0.3-0.1
		c-0.3,0-0.5,0.1-0.5,0.5v2.1h-1.2V30.8z"/>
	<path class="st0" d="M119.3,33.6L119.3,33.6c0-0.9,0.3-1.2,1.1-1.3l0.6-0.1v-0.3c0-0.1-0.1-0.2-0.2-0.2c-0.1,0-0.2,0.1-0.2,0.3V32
		h-1.2v0c0-0.9,0.6-1.3,1.5-1.3c0.8,0,1.4,0.4,1.4,1.2v2c0,0.3,0,0.6,0.1,0.8h-1.2c0-0.1,0-0.3-0.1-0.4c-0.2,0.3-0.5,0.5-0.9,0.5
		C119.7,34.8,119.3,34.4,119.3,33.6z M120.8,33.9c0.1,0,0.2-0.1,0.2-0.2v-1l-0.1,0c-0.3,0.1-0.3,0.2-0.3,0.6v0.1
		C120.6,33.8,120.7,33.9,120.8,33.9z"/>
	<path class="st0" d="M123.1,30.8h1.2v0.5c0.2-0.4,0.5-0.6,0.9-0.6c0.5,0,0.8,0.3,0.8,1v3h-1.2v-2.8c0-0.2-0.1-0.2-0.2-0.2
		c-0.1,0-0.2,0.1-0.2,0.3v2.8h-1.2V30.8z"/>
	<path class="st0" d="M126.6,33.7v-0.2h1.2v0.2c0,0.2,0.1,0.3,0.2,0.3c0.1,0,0.2-0.1,0.2-0.3v0c0-0.3-0.2-0.4-0.4-0.5l-0.4-0.2
		c-0.5-0.2-0.8-0.5-0.8-1.1v0c0-0.8,0.6-1.2,1.4-1.2c0.8,0,1.4,0.4,1.4,1.1V32h-1.2v-0.2c0-0.2-0.1-0.3-0.2-0.3
		c-0.1,0-0.2,0.1-0.2,0.2c0,0.2,0.1,0.3,0.3,0.4l0.4,0.2c0.5,0.2,0.9,0.5,0.9,1.2v0.1c0,0.8-0.6,1.2-1.5,1.2
		C127.2,34.8,126.6,34.4,126.6,33.7z"/>
	<path class="st0" d="M131.4,34.3v0.1h0v1.4h-1.2v-5h1.2v0.4c0.2-0.3,0.5-0.5,0.8-0.5c0.5,0,0.9,0.3,0.9,1.1v1.9
		c0,0.8-0.3,1.1-0.9,1.1C131.9,34.8,131.6,34.6,131.4,34.3z M131.7,33.9c0.2,0,0.2-0.1,0.2-0.3V32c0-0.2-0.1-0.3-0.2-0.3
		c-0.2,0-0.2,0.1-0.2,0.3v1.6C131.4,33.8,131.5,33.9,131.7,33.9z"/>
	<path class="st0" d="M133.8,33.6L133.8,33.6c0-0.9,0.3-1.2,1.1-1.3l0.6-0.1v-0.3c0-0.1-0.1-0.2-0.2-0.2c-0.1,0-0.2,0.1-0.2,0.3V32
		h-1.2v0c0-0.9,0.6-1.3,1.5-1.3c0.8,0,1.4,0.4,1.4,1.2v2c0,0.3,0,0.6,0.1,0.8h-1.2c0-0.1,0-0.3-0.1-0.4c-0.2,0.3-0.5,0.5-0.9,0.5
		C134.1,34.8,133.8,34.4,133.8,33.6z M135.3,33.9c0.1,0,0.2-0.1,0.2-0.2v-1l-0.1,0c-0.3,0.1-0.3,0.2-0.3,0.6v0.1
		C135.1,33.8,135.2,33.9,135.3,33.9z"/>
	<path class="st0" d="M137.5,30.8h1.2v0.7c0.2-0.5,0.5-0.7,0.8-0.7c0,0,0.1,0,0.1,0v1.4c-0.1,0-0.2-0.1-0.3-0.1
		c-0.3,0-0.5,0.1-0.5,0.5v2.1h-1.2V30.8z"/>
	<path class="st0" d="M140.2,33.4v-1.2c0-1,0.6-1.5,1.5-1.5c0.9,0,1.5,0.5,1.5,1.4v0.9h-1.7v0.5c0,0.2,0.1,0.3,0.3,0.3
		c0.2,0,0.2-0.1,0.2-0.3v-0.3h1.2v0.2c0,0.8-0.6,1.3-1.5,1.3C140.8,34.8,140.2,34.3,140.2,33.4z M141.9,32.3V32
		c0-0.2-0.1-0.3-0.2-0.3c-0.2,0-0.3,0.1-0.3,0.3v0.4H141.9z"/>
	<path class="st0" d="M143.9,30.8h1.2v0.5c0.2-0.4,0.5-0.6,0.9-0.6c0.5,0,0.8,0.3,0.8,1v3h-1.2v-2.8c0-0.2-0.1-0.2-0.2-0.2
		c-0.1,0-0.2,0.1-0.2,0.3v2.8h-1.2V30.8z"/>
	<path class="st0" d="M147.7,33.8v-2.1h-0.4v-0.9h0.4v-0.7l1.2-0.3v1.1h0.5v0.9H149v1.9c0,0.2,0.1,0.2,0.3,0.2c0.1,0,0.2,0,0.2,0
		v0.8c-0.2,0.1-0.4,0.1-0.7,0.1C148.2,34.8,147.7,34.5,147.7,33.8z"/>
	<path class="st0" d="M150,33.4v-1.2c0-1,0.6-1.5,1.5-1.5c0.9,0,1.5,0.5,1.5,1.4v0.9h-1.7v0.5c0,0.2,0.1,0.3,0.3,0.3
		c0.2,0,0.2-0.1,0.2-0.3v-0.3h1.2v0.2c0,0.8-0.6,1.3-1.5,1.3C150.6,34.8,150,34.3,150,33.4z M151.8,32.3V32c0-0.2-0.1-0.3-0.2-0.3
		c-0.2,0-0.3,0.1-0.3,0.3v0.4H151.8z"/>
	<path class="st0" d="M155.8,34.8l-0.9-4h1.3l0.3,1.9l0.3-1.9h1.2l-1.2,5h-1.3L155.8,34.8z"/>
	<path class="st0" d="M160.4,29.7h1.9l0.9,5.1h-1.4l-0.1-1H161l-0.1,1h-1.3L160.4,29.7z M161.6,32.7l-0.2-1.9l-0.2,1.9H161.6z"/>
	<path class="st0" d="M163.7,33.9v-3.1h1.2v2.8c0,0.2,0.1,0.2,0.2,0.2c0.1,0,0.2-0.1,0.2-0.3v-2.8h1.2v3.9h-1.2v-0.6
		c-0.1,0.4-0.5,0.6-0.9,0.6C164,34.8,163.7,34.5,163.7,33.9z"/>
	<path class="st0" d="M167.6,33.8v-2.1h-0.4v-0.9h0.4v-0.7l1.2-0.3v1.1h0.5v0.9h-0.5v1.9c0,0.2,0.1,0.2,0.3,0.2c0.1,0,0.2,0,0.2,0
		v0.8c-0.2,0.1-0.4,0.1-0.7,0.1C168.1,34.8,167.6,34.5,167.6,33.8z"/>
	<path class="st0" d="M169.9,33.4v-1.2c0-1,0.6-1.5,1.5-1.5c0.9,0,1.5,0.5,1.5,1.4v0.9h-1.7v0.5c0,0.2,0.1,0.3,0.3,0.3
		s0.2-0.1,0.2-0.3v-0.3h1.2v0.2c0,0.8-0.6,1.3-1.5,1.3C170.5,34.8,169.9,34.3,169.9,33.4z M171,29.7h1.2l-0.3,0.9h-1.1L171,29.7z
		 M171.6,32.3V32c0-0.2-0.1-0.3-0.2-0.3c-0.2,0-0.3,0.1-0.3,0.3v0.4H171.6z"/>
	<path class="st0" d="M173.6,30.8h1.2v0.5c0.2-0.4,0.5-0.6,0.9-0.6c0.5,0,0.8,0.3,0.8,1v3h-1.2v-2.8c0-0.2-0.1-0.2-0.2-0.2
		c-0.1,0-0.2,0.1-0.2,0.3v2.8h-1.2V30.8z"/>
	<path class="st0" d="M177.5,33.8v-2.1h-0.4v-0.9h0.4v-0.7l1.2-0.3v1.1h0.5v0.9h-0.5v1.9c0,0.2,0.1,0.2,0.3,0.2c0.1,0,0.2,0,0.2,0
		v0.8c-0.2,0.1-0.4,0.1-0.7,0.1C177.9,34.8,177.5,34.5,177.5,33.8z"/>
	<path class="st0" d="M180.5,29.5c0.4,0,0.7,0.2,0.7,0.6c0,0.3-0.3,0.6-0.7,0.6c-0.4,0-0.7-0.2-0.7-0.6
		C179.8,29.8,180.1,29.5,180.5,29.5z M179.9,30.8h1.2v3.9h-1.2V30.8z"/>
	<path class="st0" d="M181.8,33.4v-1.2c0-0.9,0.6-1.4,1.5-1.4c0.9,0,1.5,0.4,1.5,1.4v0.3h-1.2V32c0-0.2-0.1-0.3-0.2-0.3
		c-0.2,0-0.2,0.1-0.2,0.3v1.6c0,0.2,0.1,0.3,0.2,0.3c0.2,0,0.2-0.1,0.2-0.3v-0.4h1.2v0.3c0,0.9-0.6,1.4-1.5,1.4
		C182.4,34.8,181.8,34.3,181.8,33.4z"/>
	<path class="st0" d="M185.4,33.6L185.4,33.6c0-0.9,0.3-1.2,1.1-1.3l0.6-0.1v-0.3c0-0.1-0.1-0.2-0.2-0.2c-0.1,0-0.2,0.1-0.2,0.3V32
		h-1.2v0c0-0.9,0.6-1.3,1.5-1.3c0.8,0,1.4,0.4,1.4,1.2v2c0,0.3,0,0.6,0.1,0.8h-1.2c0-0.1,0-0.3-0.1-0.4c-0.2,0.3-0.5,0.5-0.9,0.5
		C185.7,34.8,185.4,34.4,185.4,33.6z M186.9,33.9c0.1,0,0.2-0.1,0.2-0.2v-1l-0.1,0c-0.3,0.1-0.3,0.2-0.3,0.6v0.1
		C186.7,33.8,186.7,33.9,186.9,33.9z"/>
</g>
<g>
	<g>
		<path class="st0" d="M66.1,5.2h13.4l8.6,11.8V5.2h10.4v21.5H85.5l-8.9-12.3v12.3H66.1V5.2z"/>
		<path class="st0" d="M101.5,5.2h26.9v5.3h-15.2v2.5h12.5v5.5h-12.5v2.7h15.2v5.5h-26.9V5.2z"/>
		<path class="st0" d="M138.1,11.4h-8.5V5.2h28.8v6.3h-8.5v15.2h-11.7V11.4z"/>
		<path class="st0" d="M163.7,5.2h16.7l9.1,21.5h-12.6l-1-3.1h-7.8l-1,3.1h-12.3L163.7,5.2z M174,17.7l-2.1-6.4l-2.1,6.4H174z"/>
	</g>
</g>
<path class="st1" d="M41.4,6.4H20.3c0,0,0,0,0,0c0,2.5-1.3,4.6-3.9,6.2c-2.1,1.3-4.2,1.7-4.2,1.7c-0.4,0.1-0.8,0.4-0.9,0.8
	c-0.1,0.4,0,0.9,0.3,1.2l18.2,18.2c0.2,0.2,0.5,0.4,0.9,0.4c0,0,0.1,0,0.1,0c3.5-0.4,10.2-3.1,10.2-10.3c0-6.9,7.7-7.8,8-7.9
	c0.5-0.1,0.8-0.4,1-0.8c0.2-0.4,0-0.9-0.3-1.3L41.4,6.4z"/>
<g>
	<path class="st0" d="M60,7.6H1.2C0.5,7.6,0,7,0,6.4s0.5-1.2,1.2-1.2H60c0.7,0,1.2,0.5,1.2,1.2S60.7,7.6,60,7.6z"/>
</g>
</svg>
